<svg width="30" height="30" viewBox="0 0 30 30" fill="none" xmlns="http://www.w3.org/2000/svg">
<path d="M6.0375 22.95C7.3125 22 8.7 21.25 10.2 20.7C11.7 20.15 13.3 19.875 15 19.875C16.7 19.875 18.3 20.15 19.8 20.7C21.3 21.25 22.6875 22 23.9625 22.95C24.8875 21.925 25.625 20.7375 26.175 19.3875C26.725 18.0375 27 16.575 27 15C27 11.675 25.8315 8.8435 23.4945 6.5055C21.1565 4.1685 18.325 3 15 3C11.675 3 8.844 4.1685 6.507 6.5055C4.169 8.8435 3 11.675 3 15C3 16.575 3.275 18.0375 3.825 19.3875C4.375 20.7375 5.1125 21.925 6.0375 22.95ZM15 16.125C13.625 16.125 12.469 15.656 11.532 14.718C10.594 13.781 10.125 12.625 10.125 11.25C10.125 9.875 10.594 8.719 11.532 7.782C12.469 6.844 13.625 6.375 15 6.375C16.375 6.375 17.531 6.844 18.468 7.782C19.406 8.719 19.875 9.875 19.875 11.25C19.875 12.625 19.406 13.781 18.468 14.718C17.531 15.656 16.375 16.125 15 16.125ZM15 29.25C13.025 29.25 11.169 28.875 9.432 28.125C7.694 27.375 6.1875 26.3625 4.9125 25.0875C3.6375 23.8125 2.625 22.306 1.875 20.568C1.125 18.831 0.75 16.975 0.75 15C0.75 13.025 1.125 11.1685 1.875 9.4305C2.625 7.6935 3.6375 6.1875 4.9125 4.9125C6.1875 3.6375 7.694 2.625 9.432 1.875C11.169 1.125 13.025 0.75 15 0.75C16.975 0.75 18.8315 1.125 20.5695 1.875C22.3065 2.625 23.8125 3.6375 25.0875 4.9125C26.3625 6.1875 27.375 7.6935 28.125 9.4305C28.875 11.1685 29.25 13.025 29.25 15C29.25 16.975 28.875 18.831 28.125 20.568C27.375 22.306 26.3625 23.8125 25.0875 25.0875C23.8125 26.3625 22.3065 27.375 20.5695 28.125C18.8315 28.875 16.975 29.25 15 29.25ZM15 27C16.35 27 17.6565 26.781 18.9195 26.343C20.1815 25.906 21.3 25.3 22.275 24.525C21.3 23.775 20.1935 23.1875 18.9555 22.7625C17.7185 22.3375 16.4 22.125 15 22.125C13.6 22.125 12.2815 22.3315 11.0445 22.7445C9.8065 23.1565 8.7 23.75 7.725 24.525C8.7 25.3 9.8185 25.906 11.0805 26.343C12.3435 26.781 13.65 27 15 27ZM15 13.875C15.75 13.875 16.375 13.625 16.875 13.125C17.375 12.625 17.625 12 17.625 11.25C17.625 10.5 17.375 9.875 16.875 9.375C16.375 8.875 15.75 8.625 15 8.625C14.25 8.625 13.625 8.875 13.125 9.375C12.625 9.875 12.375 10.5 12.375 11.25C12.375 12 12.625 12.625 13.125 13.125C13.625 13.625 14.25 13.875 15 13.875Z" fill="#19181C" fill-opacity="0.54"/>
</svg>
