<svg width="26" height="26" viewBox="0 0 26 26" fill="none" xmlns="http://www.w3.org/2000/svg">
<path d="M11.875 20.125H14.125V14.125H20.125V11.875H14.125V5.875H11.875V11.875H5.875V14.125H11.875V20.125ZM2.95 25.75C2.2 25.75 1.5625 25.4875 1.0375 24.9625C0.5125 24.4375 0.25 23.8 0.25 23.05V2.95C0.25 2.2 0.5125 1.5625 1.0375 1.0375C1.5625 0.5125 2.2 0.25 2.95 0.25H23.05C23.8 0.25 24.4375 0.5125 24.9625 1.0375C25.4875 1.5625 25.75 2.2 25.75 2.95V23.05C25.75 23.8 25.4875 24.4375 24.9625 24.9625C24.4375 25.4875 23.8 25.75 23.05 25.75H2.95Z" fill="#E0E0E0"/>
</svg>
