<svg width="30" height="27" viewBox="0 0 30 27" fill="none" xmlns="http://www.w3.org/2000/svg">
<path d="M15 26.4875L13.35 24.9875C10.85 22.7375 8.78752 20.8 7.16252 19.175C5.53752 17.55 4.25002 16.106 3.30002 14.843C2.35002 13.581 1.68752 12.431 1.31252 11.393C0.937515 10.356 0.750015 9.3 0.750015 8.22501C0.750015 6.10001 1.46902 4.31851 2.90702 2.88051C4.34402 1.44351 6.12502 0.725006 8.25002 0.725006C9.55002 0.725006 10.7875 1.03101 11.9625 1.64301C13.1375 2.25601 14.15 3.13751 15 4.28751C15.85 3.13751 16.8625 2.25601 18.0375 1.64301C19.2125 1.03101 20.45 0.725006 21.75 0.725006C23.875 0.725006 25.656 1.44351 27.093 2.88051C28.531 4.31851 29.25 6.10001 29.25 8.22501C29.25 9.3 29.0625 10.356 28.6875 11.393C28.3125 12.431 27.65 13.581 26.7 14.843C25.75 16.106 24.4625 17.55 22.8375 19.175C21.2125 20.8 19.15 22.7375 16.65 24.9875L15 26.4875Z" fill="#E0E0E0"/>
</svg>
