<svg width="132" height="43" viewBox="0 0 132 43" fill="none" xmlns="http://www.w3.org/2000/svg">
<path d="M3.43 31.355C3.43 31.1217 3.34833 27.68 3.185 21.03C3.09167 16.4333 3.16167 12.7 3.395 9.83C3.44167 9.34 3.64 8.94333 3.99 8.64C4.36333 8.33667 4.795 8.19667 5.285 8.22C5.51833 8.24333 5.74 8.31333 5.95 8.43C8.68 7.87 11.1417 7.74167 13.335 8.045C17.185 8.58166 19.6817 10.3317 20.825 13.295C21.2683 14.7183 21.4317 15.885 21.315 16.795C21.2217 17.6817 20.9533 18.4867 20.51 19.21C20.09 19.91 19.5417 20.4817 18.865 20.925C18.2117 21.3683 17.5467 21.73 16.87 22.01C16.1933 22.2667 15.47 22.465 14.7 22.605C12.32 23.095 9.67167 23.1767 6.755 22.85C6.87167 27.33 6.93 30.165 6.93 31.355C6.93 31.845 6.755 32.265 6.405 32.615C6.07833 32.9417 5.67 33.105 5.18 33.105C4.69 33.105 4.27 32.9417 3.92 32.615C3.59333 32.265 3.43 31.845 3.43 31.355ZM6.685 19.385C6.825 19.3617 6.97667 19.35 7.14 19.35C9.68333 19.6533 11.97 19.595 14 19.175C16.4033 18.685 17.6867 17.7517 17.85 16.375C17.8967 16.0483 17.7917 15.4417 17.535 14.555C16.905 12.875 15.3533 11.86 12.88 11.51C11.1067 11.2767 9.07667 11.3817 6.79 11.825C6.67333 13.8783 6.63833 16.3983 6.685 19.385ZM33.6667 33.07C30.6334 33.1167 28.4751 33.105 27.1917 33.035C26.7484 33.0117 26.3634 32.8483 26.0367 32.545C25.7101 32.2183 25.5351 31.8217 25.5117 31.355C25.4884 31.2383 25.4767 31.1333 25.4767 31.04C25.4534 29.71 25.3951 26.5717 25.3017 21.625C25.2084 16.6783 25.1617 12.6417 25.1617 9.515C25.1617 9.025 25.3251 8.61667 25.6517 8.29C26.0017 7.94 26.4217 7.765 26.9117 7.765C27.4017 7.765 27.8101 7.94 28.1367 8.29C28.4867 8.61667 28.6617 9.025 28.6617 9.515C28.6617 11.8717 28.6734 14.135 28.6967 16.305C28.7434 18.475 28.7901 20.8667 28.8367 23.48C28.9067 26.07 28.9417 28.1 28.9417 29.57C30.1551 29.5933 32.0101 29.5817 34.5067 29.535C37.0267 29.4883 38.9401 29.4767 40.2467 29.5C40.7367 29.5 41.1451 29.675 41.4717 30.025C41.7984 30.375 41.9617 30.795 41.9617 31.285C41.9617 31.775 41.7867 32.1833 41.4367 32.51C41.0867 32.8367 40.6667 33 40.1767 33C38.9167 32.9767 36.7467 33 33.6667 33.07ZM45.9586 31.95C45.7719 32.4167 45.4452 32.7433 44.9786 32.93C44.5352 33.1167 44.0802 33.1167 43.6136 32.93C43.1702 32.7433 42.8552 32.4283 42.6686 31.985C42.4819 31.5183 42.4819 31.0633 42.6686 30.62C43.1352 29.4767 43.7419 27.7383 44.4886 25.405C45.2586 23.0717 45.8069 21.4967 46.1336 20.68C46.2969 20.2133 46.9619 18.5567 48.1286 15.71C49.2252 12.91 50.0769 10.635 50.6836 8.885C50.8469 8.41833 51.1386 8.08 51.5586 7.87C52.0019 7.63666 52.4569 7.60167 52.9236 7.765C53.1336 7.835 53.3202 7.94 53.4836 8.08C53.9502 8.24333 54.2769 8.55833 54.4636 9.025L63.1786 30.55C63.3652 31.0167 63.3652 31.4833 63.1786 31.95C62.9919 32.3933 62.6652 32.7083 62.1986 32.895C61.7552 33.0817 61.3002 33.0817 60.8336 32.895C60.3902 32.7083 60.0752 32.3933 59.8886 31.95L57.2636 25.16C56.3069 25.2067 55.7702 25.23 55.6536 25.23C52.5036 25.3467 50.0302 25.405 48.2336 25.405C47.1836 28.485 46.4252 30.6667 45.9586 31.95ZM49.5286 21.835C51.4886 21.8117 53.5886 21.765 55.8286 21.695L52.6436 13.995L49.5286 21.835ZM84.82 33.105C84.6567 33.105 84.505 33.0817 84.365 33.035C83.6884 33.1517 83.1284 32.9533 82.685 32.44C82.055 31.67 81.39 30.8067 80.69 29.85C80.0134 28.87 79.4534 28.03 79.01 27.33L77.26 24.565L75.65 22.045C74.0634 19.595 72.2434 17.0167 70.19 14.31C70.1667 16.27 70.2017 19.14 70.295 22.92C70.4117 26.7 70.47 29.4883 70.47 31.285C70.47 31.775 70.295 32.195 69.945 32.545C69.6184 32.8717 69.21 33.035 68.72 33.035C68.23 33.035 67.81 32.8717 67.46 32.545C67.1334 32.195 66.97 31.775 66.97 31.285C66.97 29.885 66.9117 26.7233 66.795 21.8C66.6784 16.8533 66.6667 13.05 66.76 10.39C66.7834 10.04 66.865 9.67833 67.005 9.305C67.1217 8.97833 67.355 8.65167 67.705 8.325C68.0784 8.06833 68.51 7.96333 69 8.01C69.49 8.05667 69.8867 8.26667 70.19 8.64C73.5034 12.77 76.3034 16.6083 78.59 20.155L80.025 22.43L81.67 25.02L83.105 27.155C83.2217 19.385 83.245 13.5867 83.175 9.76C83.175 9.27 83.3384 8.85 83.665 8.5C83.9917 8.15 84.4 7.975 84.89 7.975C85.38 7.975 85.8 8.13833 86.15 8.465C86.5 8.79167 86.675 9.2 86.675 9.69C86.7217 12.6067 86.6867 19.84 86.57 31.39C86.57 31.8567 86.395 32.265 86.045 32.615C85.695 32.9417 85.2867 33.105 84.82 33.105ZM101.863 31.25C101.863 31.74 101.688 32.1483 101.338 32.475C100.988 32.8017 100.568 32.965 100.078 32.965C99.5884 32.965 99.1801 32.79 98.8534 32.44C98.5267 32.09 98.3634 31.67 98.3634 31.18C98.3867 30.3633 98.3751 27.0617 98.3284 21.275C98.3051 17.0517 98.3751 13.785 98.5384 11.475C95.9951 11.4517 93.8484 11.475 92.0984 11.545C91.6084 11.5683 91.1884 11.4167 90.8384 11.09C90.4884 10.74 90.3017 10.3317 90.2784 9.865C90.2551 9.375 90.4067 8.955 90.7334 8.605C91.0834 8.255 91.4917 8.06833 91.9584 8.045C93.9651 7.975 96.7534 7.95167 100.323 7.975C103.893 7.99833 106.682 7.99833 108.688 7.975C109.178 7.975 109.598 8.13833 109.948 8.465C110.298 8.79167 110.473 9.2 110.473 9.69C110.473 10.18 110.31 10.6 109.983 10.95C109.657 11.3 109.248 11.475 108.758 11.475C107.102 11.4983 104.862 11.51 102.038 11.51C101.875 13.75 101.805 16.9933 101.828 21.24C101.875 27.05 101.887 30.3867 101.863 31.25ZM119.489 31.425C119.396 30.7483 119.337 29.2317 119.314 26.875C119.291 25.3817 119.267 24.3783 119.244 23.865L113.644 14.66C112.781 13.2133 111.987 11.8133 111.264 10.46C111.031 10.04 110.984 9.59666 111.124 9.13C111.264 8.66333 111.544 8.31333 111.964 8.08C112.384 7.84667 112.827 7.8 113.294 7.94C113.761 8.08 114.111 8.36 114.344 8.78C115.394 10.74 117.576 14.4383 120.889 19.875C121.332 19.1517 121.997 18.16 122.884 16.9C123.771 15.64 124.377 14.7417 124.704 14.205C124.867 13.9483 125.404 13.0267 126.314 11.44C126.991 10.25 127.574 9.29333 128.064 8.57C128.321 8.17333 128.682 7.92833 129.149 7.835C129.639 7.74167 130.082 7.835 130.479 8.115C130.876 8.37167 131.121 8.745 131.214 9.235C131.307 9.70167 131.214 10.1333 130.934 10.53C130.631 10.9967 130.106 11.8833 129.359 13.19L127.714 16.025C127.294 16.6783 126.501 17.845 125.334 19.525C124.167 21.1817 123.327 22.5467 122.814 23.62C122.791 23.69 122.767 23.7483 122.744 23.795C122.767 24.3083 122.791 25.3233 122.814 26.84C122.837 29.0333 122.896 30.445 122.989 31.075C123.036 31.565 122.896 31.9967 122.569 32.37C122.266 32.7433 121.869 32.9533 121.379 33C120.912 33.0467 120.492 32.9183 120.119 32.615C119.746 32.2883 119.536 31.8917 119.489 31.425Z" fill="#1D411A"/>
<mask id="mask0_10_2" style="mask-type:alpha" maskUnits="userSpaceOnUse" x="114" y="0" width="14" height="14">
<rect x="114" width="14" height="14" fill="#D9D9D9"/>
</mask>
<g mask="url(#mask0_10_2)">
<path d="M121 11.0834C119.863 11.0834 118.898 10.6871 118.106 9.89452C117.313 9.10235 116.917 8.13752 116.917 7.00002C116.917 5.86252 117.313 4.89749 118.106 4.10494C118.898 3.31277 119.863 2.91669 121 2.91669C122.138 2.91669 123.102 3.31277 123.895 4.10494C124.687 4.89749 125.083 5.86252 125.083 7.00002C125.083 8.13752 124.687 9.10235 123.895 9.89452C123.102 10.6871 122.138 11.0834 121 11.0834Z" fill="#3DB306" fill-opacity="0.82"/>
</g>
</svg>
