<svg width="32" height="31" viewBox="0 0 32 31" fill="none" xmlns="http://www.w3.org/2000/svg">
<path d="M9.62786 31C8.80424 31 8.1016 30.7259 7.51996 30.1776C6.93717 29.6283 6.64578 28.9655 6.64578 28.1891C6.64578 27.4128 6.93717 26.7499 7.51996 26.2006C8.1016 25.6524 8.80424 25.3782 9.62786 25.3782C10.4515 25.3782 11.1541 25.6524 11.7358 26.2006C12.3186 26.7499 12.6099 27.4128 12.6099 28.1891C12.6099 28.9655 12.3186 29.6283 11.7358 30.1776C11.1541 30.7259 10.4515 31 9.62786 31ZM26.1571 31C25.3335 31 24.6309 30.7259 24.0492 30.1776C23.4664 29.6283 23.175 28.9655 23.175 28.1891C23.175 27.4128 23.4664 26.7499 24.0492 26.2006C24.6309 25.6524 25.3335 25.3782 26.1571 25.3782C26.9807 25.3782 27.6834 25.6524 28.265 26.2006C28.8478 26.7499 29.1392 27.4128 29.1392 28.1891C29.1392 28.9655 28.8478 29.6283 28.265 30.1776C27.6834 30.7259 26.9807 31 26.1571 31ZM7.71081 5.62176L12.0135 14.1347H23.6436C23.7288 14.1347 23.814 14.1144 23.8992 14.0737C23.9845 14.0341 24.0413 13.9741 24.0697 13.8938L28.6706 6.06347C28.7274 5.95639 28.7274 5.85627 28.6706 5.76311C28.6138 5.66888 28.5286 5.62176 28.415 5.62176H7.71081ZM6.47538 3.21244H30.119C30.829 3.21244 31.3618 3.49352 31.7174 4.0557C32.0719 4.61788 32.0929 5.19344 31.7805 5.78238L26.2849 15.0984C26.0293 15.5535 25.6675 15.908 25.1994 16.1618C24.7303 16.4166 24.2259 16.544 23.6862 16.544H11.2467L9.28705 19.9573C9.20185 20.0911 9.19503 20.225 9.2666 20.3588C9.33704 20.4927 9.45746 20.5596 9.62786 20.5596H29.1392V22.9689H9.62786C8.49183 22.9689 7.63981 22.5074 7.07179 21.5844C6.50378 20.6602 6.48958 19.7431 7.02919 18.8329L9.45746 14.6969L3.23769 2.40933H0V0H4.85653L6.47538 3.21244Z" fill="#19181C" fill-opacity="0.54"/>
</svg>
